<mxfile host="app.diagrams.net" modified="2024-05-06T19:15:20.386Z" agent="Mozilla/5.0 (Windows NT 10.0; Win64; x64) AppleWebKit/537.36 (KHTML, like Gecko) Chrome/124.0.0.0 Safari/537.36" etag="PbArQk5JW3wKFgGwf6Ly" version="24.3.0" type="google">
  <diagram name="PÃ¡gina-1" id="5BBRs1TUjezzs2sZiRqs">
    <mxGraphModel grid="0" page="0" gridSize="10" guides="1" tooltips="1" connect="1" arrows="1" fold="1" pageScale="1" pageWidth="827" pageHeight="1169" math="0" shadow="0">
      <root>
        <mxCell id="0" />
        <mxCell id="1" parent="0" />
        <mxCell id="VLyRMC3tnF9Kx2FfK0Kg-1" value="Trip" style="rounded=0;whiteSpace=wrap;html=1;" vertex="1" parent="1">
          <mxGeometry x="2" y="106" width="120" height="60" as="geometry" />
        </mxCell>
        <mxCell id="VLyRMC3tnF9Kx2FfK0Kg-2" value="End Timestamp" style="ellipse;whiteSpace=wrap;html=1;align=center;" vertex="1" parent="1">
          <mxGeometry x="-181" y="-10" width="100" height="40" as="geometry" />
        </mxCell>
        <mxCell id="VLyRMC3tnF9Kx2FfK0Kg-4" value="Start Timestamp" style="ellipse;whiteSpace=wrap;html=1;align=center;" vertex="1" parent="1">
          <mxGeometry x="-294" y="21" width="100" height="40" as="geometry" />
        </mxCell>
        <mxCell id="VLyRMC3tnF9Kx2FfK0Kg-6" value="ID" style="ellipse;whiteSpace=wrap;html=1;align=center;fontStyle=4;" vertex="1" parent="1">
          <mxGeometry x="-311" y="82" width="100" height="40" as="geometry" />
        </mxCell>
        <mxCell id="VLyRMC3tnF9Kx2FfK0Kg-8" value="Seconds" style="ellipse;whiteSpace=wrap;html=1;align=center;" vertex="1" parent="1">
          <mxGeometry x="-291" y="150" width="100" height="40" as="geometry" />
        </mxCell>
        <mxCell id="VLyRMC3tnF9Kx2FfK0Kg-10" value="Miles" style="ellipse;whiteSpace=wrap;html=1;align=center;" vertex="1" parent="1">
          <mxGeometry x="-237" y="206" width="100" height="40" as="geometry" />
        </mxCell>
        <mxCell id="VLyRMC3tnF9Kx2FfK0Kg-14" style="edgeStyle=none;curved=1;rounded=0;orthogonalLoop=1;jettySize=auto;html=1;exitX=0.5;exitY=1;exitDx=0;exitDy=0;entryX=0.5;entryY=0;entryDx=0;entryDy=0;fontSize=12;startSize=8;endSize=8;" edge="1" parent="1" source="VLyRMC3tnF9Kx2FfK0Kg-12" target="VLyRMC3tnF9Kx2FfK0Kg-13">
          <mxGeometry relative="1" as="geometry" />
        </mxCell>
        <mxCell id="VLyRMC3tnF9Kx2FfK0Kg-12" value="Taxi" style="rounded=0;whiteSpace=wrap;html=1;" vertex="1" parent="1">
          <mxGeometry x="249" y="-189" width="120" height="60" as="geometry" />
        </mxCell>
        <mxCell id="VLyRMC3tnF9Kx2FfK0Kg-13" value="Company" style="ellipse;whiteSpace=wrap;html=1;align=center;" vertex="1" parent="1">
          <mxGeometry x="92" y="-206" width="100" height="40" as="geometry" />
        </mxCell>
        <mxCell id="VLyRMC3tnF9Kx2FfK0Kg-15" value="ID" style="ellipse;whiteSpace=wrap;html=1;align=center;fontStyle=4;" vertex="1" parent="1">
          <mxGeometry x="259" y="-285" width="100" height="40" as="geometry" />
        </mxCell>
        <mxCell id="VLyRMC3tnF9Kx2FfK0Kg-20" value="Fare" style="ellipse;whiteSpace=wrap;html=1;align=center;" vertex="1" parent="1">
          <mxGeometry x="361" y="-93" width="100" height="40" as="geometry" />
        </mxCell>
        <mxCell id="VLyRMC3tnF9Kx2FfK0Kg-22" value="Tips" style="ellipse;whiteSpace=wrap;html=1;align=center;" vertex="1" parent="1">
          <mxGeometry x="433" y="-50" width="100" height="40" as="geometry" />
        </mxCell>
        <mxCell id="VLyRMC3tnF9Kx2FfK0Kg-24" value="Tolls" style="ellipse;whiteSpace=wrap;html=1;align=center;" vertex="1" parent="1">
          <mxGeometry x="474" y="57" width="100" height="40" as="geometry" />
        </mxCell>
        <mxCell id="VLyRMC3tnF9Kx2FfK0Kg-26" value="Extras" style="ellipse;whiteSpace=wrap;html=1;align=center;" vertex="1" parent="1">
          <mxGeometry x="316" y="112" width="100" height="40" as="geometry" />
        </mxCell>
        <mxCell id="VLyRMC3tnF9Kx2FfK0Kg-28" value="Payment Type" style="ellipse;whiteSpace=wrap;html=1;align=center;" vertex="1" parent="1">
          <mxGeometry x="429" y="106" width="100" height="40" as="geometry" />
        </mxCell>
        <mxCell id="VLyRMC3tnF9Kx2FfK0Kg-30" value="Pickup Info" style="rounded=0;whiteSpace=wrap;html=1;" vertex="1" parent="1">
          <mxGeometry x="225" y="515" width="120" height="60" as="geometry" />
        </mxCell>
        <mxCell id="VLyRMC3tnF9Kx2FfK0Kg-31" value="Census Tract" style="ellipse;whiteSpace=wrap;html=1;align=center;" vertex="1" parent="1">
          <mxGeometry x="235" y="419" width="100" height="40" as="geometry" />
        </mxCell>
        <mxCell id="VLyRMC3tnF9Kx2FfK0Kg-33" value="Community area" style="ellipse;whiteSpace=wrap;html=1;align=center;" vertex="1" parent="1">
          <mxGeometry x="382" y="450" width="100" height="40" as="geometry" />
        </mxCell>
        <mxCell id="VLyRMC3tnF9Kx2FfK0Kg-35" value="ID" style="ellipse;whiteSpace=wrap;html=1;align=center;fontStyle=4;" vertex="1" parent="1">
          <mxGeometry x="403" y="525" width="100" height="40" as="geometry" />
        </mxCell>
        <mxCell id="VLyRMC3tnF9Kx2FfK0Kg-37" value="Centroid Longitude" style="ellipse;whiteSpace=wrap;html=1;align=center;" vertex="1" parent="1">
          <mxGeometry x="395" y="600" width="100" height="40" as="geometry" />
        </mxCell>
        <mxCell id="VLyRMC3tnF9Kx2FfK0Kg-39" value="Centroid Latitude" style="ellipse;whiteSpace=wrap;html=1;align=center;" vertex="1" parent="1">
          <mxGeometry x="301" y="634" width="100" height="40" as="geometry" />
        </mxCell>
        <mxCell id="VLyRMC3tnF9Kx2FfK0Kg-45" style="edgeStyle=none;curved=1;rounded=0;orthogonalLoop=1;jettySize=auto;html=1;entryX=0.5;entryY=1;entryDx=0;entryDy=0;fontSize=12;startSize=8;endSize=8;exitX=0.5;exitY=1;exitDx=0;exitDy=0;" edge="1" parent="1" source="VLyRMC3tnF9Kx2FfK0Kg-41" target="VLyRMC3tnF9Kx2FfK0Kg-44">
          <mxGeometry relative="1" as="geometry" />
        </mxCell>
        <mxCell id="VLyRMC3tnF9Kx2FfK0Kg-41" value="Dropoff Info" style="rounded=0;whiteSpace=wrap;html=1;" vertex="1" parent="1">
          <mxGeometry x="-394" y="447" width="124" height="60" as="geometry" />
        </mxCell>
        <mxCell id="VLyRMC3tnF9Kx2FfK0Kg-44" value="Census Tract" style="ellipse;whiteSpace=wrap;html=1;align=center;" vertex="1" parent="1">
          <mxGeometry x="-296" y="566" width="100" height="40" as="geometry" />
        </mxCell>
        <mxCell id="VLyRMC3tnF9Kx2FfK0Kg-46" value="ID" style="ellipse;whiteSpace=wrap;html=1;align=center;fontStyle=4;" vertex="1" parent="1">
          <mxGeometry x="-602" y="457" width="100" height="40" as="geometry" />
        </mxCell>
        <mxCell id="VLyRMC3tnF9Kx2FfK0Kg-48" value="Community Area" style="ellipse;whiteSpace=wrap;html=1;align=center;" vertex="1" parent="1">
          <mxGeometry x="-578" y="382" width="100" height="40" as="geometry" />
        </mxCell>
        <mxCell id="VLyRMC3tnF9Kx2FfK0Kg-51" value="Centroid Latitude" style="ellipse;whiteSpace=wrap;html=1;align=center;" vertex="1" parent="1">
          <mxGeometry x="-447" y="572" width="100" height="40" as="geometry" />
        </mxCell>
        <mxCell id="VLyRMC3tnF9Kx2FfK0Kg-53" value="Centroid Longitude" style="ellipse;whiteSpace=wrap;html=1;align=center;" vertex="1" parent="1">
          <mxGeometry x="-578" y="532" width="100" height="40" as="geometry" />
        </mxCell>
        <mxCell id="OvC8AXJkAFaHnAALXdvc-1" value="Bill" style="rhombus;whiteSpace=wrap;html=1;" vertex="1" parent="1">
          <mxGeometry x="269" y="-19" width="80" height="80" as="geometry" />
        </mxCell>
        <mxCell id="OvC8AXJkAFaHnAALXdvc-2" value="Info Trip Dropoff" style="rhombus;whiteSpace=wrap;html=1;" vertex="1" parent="1">
          <mxGeometry x="-172" y="321" width="80" height="80" as="geometry" />
        </mxCell>
        <mxCell id="OvC8AXJkAFaHnAALXdvc-3" value="Info Trip Pickup" style="rhombus;whiteSpace=wrap;html=1;" vertex="1" parent="1">
          <mxGeometry x="79" y="321" width="80" height="80" as="geometry" />
        </mxCell>
        <mxCell id="OvC8AXJkAFaHnAALXdvc-4" value="(1,1)" style="text;html=1;align=center;verticalAlign=middle;whiteSpace=wrap;rounded=0;" vertex="1" parent="1">
          <mxGeometry x="-250" y="465" width="60" height="30" as="geometry" />
        </mxCell>
        <mxCell id="OvC8AXJkAFaHnAALXdvc-5" value="(1,1)" style="text;html=1;align=center;verticalAlign=middle;whiteSpace=wrap;rounded=0;" vertex="1" parent="1">
          <mxGeometry x="151" y="530" width="60" height="30" as="geometry" />
        </mxCell>
        <mxCell id="OvC8AXJkAFaHnAALXdvc-9" value="" style="endArrow=none;html=1;rounded=0;entryX=0.5;entryY=1;entryDx=0;entryDy=0;" edge="1" parent="1" source="VLyRMC3tnF9Kx2FfK0Kg-12" target="VLyRMC3tnF9Kx2FfK0Kg-15">
          <mxGeometry width="50" height="50" relative="1" as="geometry">
            <mxPoint x="309" y="-209.71067811865476" as="sourcePoint" />
            <mxPoint x="309" y="-259.71067811865476" as="targetPoint" />
          </mxGeometry>
        </mxCell>
        <mxCell id="OvC8AXJkAFaHnAALXdvc-10" value="" style="endArrow=none;html=1;rounded=0;entryX=0.5;entryY=1;entryDx=0;entryDy=0;exitX=0.5;exitY=0;exitDx=0;exitDy=0;" edge="1" parent="1" source="OvC8AXJkAFaHnAALXdvc-1" target="VLyRMC3tnF9Kx2FfK0Kg-12">
          <mxGeometry width="50" height="50" relative="1" as="geometry">
            <mxPoint x="276" y="-65" as="sourcePoint" />
            <mxPoint x="326" y="-115" as="targetPoint" />
          </mxGeometry>
        </mxCell>
        <mxCell id="OvC8AXJkAFaHnAALXdvc-11" value="" style="endArrow=none;html=1;rounded=0;exitX=1;exitY=0.5;exitDx=0;exitDy=0;" edge="1" parent="1" source="VLyRMC3tnF9Kx2FfK0Kg-1" target="OvC8AXJkAFaHnAALXdvc-1">
          <mxGeometry width="50" height="50" relative="1" as="geometry">
            <mxPoint x="182" y="145" as="sourcePoint" />
            <mxPoint x="232" y="95" as="targetPoint" />
          </mxGeometry>
        </mxCell>
        <mxCell id="OvC8AXJkAFaHnAALXdvc-12" value="" style="endArrow=none;html=1;rounded=0;exitX=0.5;exitY=0;exitDx=0;exitDy=0;" edge="1" parent="1" source="VLyRMC3tnF9Kx2FfK0Kg-26">
          <mxGeometry width="50" height="50" relative="1" as="geometry">
            <mxPoint x="300" y="104" as="sourcePoint" />
            <mxPoint x="350" y="23" as="targetPoint" />
          </mxGeometry>
        </mxCell>
        <mxCell id="OvC8AXJkAFaHnAALXdvc-13" value="" style="endArrow=none;html=1;rounded=0;entryX=1;entryY=0.5;entryDx=0;entryDy=0;" edge="1" parent="1" source="VLyRMC3tnF9Kx2FfK0Kg-28" target="OvC8AXJkAFaHnAALXdvc-1">
          <mxGeometry width="50" height="50" relative="1" as="geometry">
            <mxPoint x="381" y="81" as="sourcePoint" />
            <mxPoint x="431" y="31" as="targetPoint" />
          </mxGeometry>
        </mxCell>
        <mxCell id="OvC8AXJkAFaHnAALXdvc-15" value="" style="endArrow=none;html=1;rounded=0;exitX=1;exitY=0.5;exitDx=0;exitDy=0;entryX=0;entryY=1;entryDx=0;entryDy=0;" edge="1" parent="1" source="OvC8AXJkAFaHnAALXdvc-1" target="VLyRMC3tnF9Kx2FfK0Kg-20">
          <mxGeometry width="50" height="50" relative="1" as="geometry">
            <mxPoint x="334" y="-2" as="sourcePoint" />
            <mxPoint x="384" y="-52" as="targetPoint" />
          </mxGeometry>
        </mxCell>
        <mxCell id="OvC8AXJkAFaHnAALXdvc-16" value="" style="endArrow=none;html=1;rounded=0;exitX=1;exitY=0.5;exitDx=0;exitDy=0;entryX=0;entryY=0.5;entryDx=0;entryDy=0;" edge="1" parent="1" source="OvC8AXJkAFaHnAALXdvc-1" target="VLyRMC3tnF9Kx2FfK0Kg-22">
          <mxGeometry width="50" height="50" relative="1" as="geometry">
            <mxPoint x="369" y="22" as="sourcePoint" />
            <mxPoint x="419" y="-28" as="targetPoint" />
          </mxGeometry>
        </mxCell>
        <mxCell id="OvC8AXJkAFaHnAALXdvc-17" value="" style="endArrow=none;html=1;rounded=0;exitX=1;exitY=0.5;exitDx=0;exitDy=0;entryX=0;entryY=0.5;entryDx=0;entryDy=0;" edge="1" parent="1" source="OvC8AXJkAFaHnAALXdvc-1" target="OvC8AXJkAFaHnAALXdvc-19">
          <mxGeometry width="50" height="50" relative="1" as="geometry">
            <mxPoint x="379" y="53" as="sourcePoint" />
            <mxPoint x="469" y="21" as="targetPoint" />
          </mxGeometry>
        </mxCell>
        <mxCell id="OvC8AXJkAFaHnAALXdvc-18" value="" style="endArrow=none;html=1;rounded=0;entryX=0;entryY=0.5;entryDx=0;entryDy=0;exitX=1;exitY=0.5;exitDx=0;exitDy=0;" edge="1" parent="1" source="OvC8AXJkAFaHnAALXdvc-1" target="VLyRMC3tnF9Kx2FfK0Kg-24">
          <mxGeometry width="50" height="50" relative="1" as="geometry">
            <mxPoint x="374" y="80" as="sourcePoint" />
            <mxPoint x="424" y="30" as="targetPoint" />
          </mxGeometry>
        </mxCell>
        <mxCell id="OvC8AXJkAFaHnAALXdvc-19" value="Total" style="ellipse;whiteSpace=wrap;html=1;align=center;" vertex="1" parent="1">
          <mxGeometry x="474" y="1" width="100" height="40" as="geometry" />
        </mxCell>
        <mxCell id="OvC8AXJkAFaHnAALXdvc-20" value="" style="endArrow=none;html=1;rounded=0;entryX=1;entryY=1;entryDx=0;entryDy=0;exitX=0;exitY=0.5;exitDx=0;exitDy=0;" edge="1" parent="1" source="VLyRMC3tnF9Kx2FfK0Kg-1" target="VLyRMC3tnF9Kx2FfK0Kg-2">
          <mxGeometry width="50" height="50" relative="1" as="geometry">
            <mxPoint x="5" y="106" as="sourcePoint" />
            <mxPoint x="55" y="56" as="targetPoint" />
          </mxGeometry>
        </mxCell>
        <mxCell id="OvC8AXJkAFaHnAALXdvc-21" value="" style="endArrow=none;html=1;rounded=0;entryX=0;entryY=0.5;entryDx=0;entryDy=0;exitX=1;exitY=0.5;exitDx=0;exitDy=0;" edge="1" parent="1" source="VLyRMC3tnF9Kx2FfK0Kg-4" target="VLyRMC3tnF9Kx2FfK0Kg-1">
          <mxGeometry width="50" height="50" relative="1" as="geometry">
            <mxPoint x="-105" y="165" as="sourcePoint" />
            <mxPoint x="-55" y="115" as="targetPoint" />
          </mxGeometry>
        </mxCell>
        <mxCell id="OvC8AXJkAFaHnAALXdvc-22" value="" style="endArrow=none;html=1;rounded=0;entryX=0;entryY=0.5;entryDx=0;entryDy=0;exitX=1;exitY=0.5;exitDx=0;exitDy=0;" edge="1" parent="1" source="VLyRMC3tnF9Kx2FfK0Kg-6" target="VLyRMC3tnF9Kx2FfK0Kg-1">
          <mxGeometry width="50" height="50" relative="1" as="geometry">
            <mxPoint x="-145" y="169" as="sourcePoint" />
            <mxPoint x="-95" y="119" as="targetPoint" />
          </mxGeometry>
        </mxCell>
        <mxCell id="OvC8AXJkAFaHnAALXdvc-23" value="" style="endArrow=none;html=1;rounded=0;entryX=0;entryY=0.5;entryDx=0;entryDy=0;exitX=1;exitY=0.5;exitDx=0;exitDy=0;" edge="1" parent="1" source="VLyRMC3tnF9Kx2FfK0Kg-8" target="VLyRMC3tnF9Kx2FfK0Kg-1">
          <mxGeometry width="50" height="50" relative="1" as="geometry">
            <mxPoint x="-111" y="176" as="sourcePoint" />
            <mxPoint x="-61" y="126" as="targetPoint" />
          </mxGeometry>
        </mxCell>
        <mxCell id="OvC8AXJkAFaHnAALXdvc-24" value="" style="endArrow=none;html=1;rounded=0;entryX=0;entryY=0.5;entryDx=0;entryDy=0;exitX=1;exitY=0.5;exitDx=0;exitDy=0;" edge="1" parent="1" source="VLyRMC3tnF9Kx2FfK0Kg-10" target="VLyRMC3tnF9Kx2FfK0Kg-1">
          <mxGeometry width="50" height="50" relative="1" as="geometry">
            <mxPoint x="-99" y="221" as="sourcePoint" />
            <mxPoint x="-49" y="171" as="targetPoint" />
          </mxGeometry>
        </mxCell>
        <mxCell id="OvC8AXJkAFaHnAALXdvc-25" value="(1,n)" style="text;html=1;align=center;verticalAlign=middle;whiteSpace=wrap;rounded=0;" vertex="1" parent="1">
          <mxGeometry x="246" y="-131" width="60" height="30" as="geometry" />
        </mxCell>
        <mxCell id="OvC8AXJkAFaHnAALXdvc-26" value="(1,n)" style="text;html=1;align=center;verticalAlign=middle;whiteSpace=wrap;rounded=0;" vertex="1" parent="1">
          <mxGeometry x="118" y="82" width="60" height="30" as="geometry" />
        </mxCell>
        <mxCell id="OvC8AXJkAFaHnAALXdvc-27" value="n:m" style="text;html=1;align=center;verticalAlign=middle;whiteSpace=wrap;rounded=0;" vertex="1" parent="1">
          <mxGeometry x="209" width="60" height="30" as="geometry" />
        </mxCell>
        <mxCell id="OvC8AXJkAFaHnAALXdvc-28" value="" style="endArrow=none;html=1;rounded=0;entryX=0;entryY=0.5;entryDx=0;entryDy=0;" edge="1" parent="1" source="VLyRMC3tnF9Kx2FfK0Kg-48" target="VLyRMC3tnF9Kx2FfK0Kg-41">
          <mxGeometry width="50" height="50" relative="1" as="geometry">
            <mxPoint x="-492.64466094067257" y="419.14213562373106" as="sourcePoint" />
            <mxPoint x="-410" y="397" as="targetPoint" />
          </mxGeometry>
        </mxCell>
        <mxCell id="OvC8AXJkAFaHnAALXdvc-29" value="" style="endArrow=none;html=1;rounded=0;entryX=0;entryY=0.5;entryDx=0;entryDy=0;exitX=1;exitY=0.5;exitDx=0;exitDy=0;" edge="1" parent="1" target="VLyRMC3tnF9Kx2FfK0Kg-41">
          <mxGeometry width="50" height="50" relative="1" as="geometry">
            <mxPoint x="-502" y="480" as="sourcePoint" />
            <mxPoint x="-430" y="466" as="targetPoint" />
          </mxGeometry>
        </mxCell>
        <mxCell id="OvC8AXJkAFaHnAALXdvc-30" value="" style="endArrow=none;html=1;rounded=0;entryX=0;entryY=0.5;entryDx=0;entryDy=0;exitX=1;exitY=0;exitDx=0;exitDy=0;" edge="1" parent="1" target="VLyRMC3tnF9Kx2FfK0Kg-41">
          <mxGeometry width="50" height="50" relative="1" as="geometry">
            <mxPoint x="-492.64466094067257" y="540.8578643762689" as="sourcePoint" />
            <mxPoint x="-425" y="491" as="targetPoint" />
          </mxGeometry>
        </mxCell>
        <mxCell id="OvC8AXJkAFaHnAALXdvc-31" value="" style="endArrow=none;html=1;rounded=0;entryX=0.5;entryY=1;entryDx=0;entryDy=0;exitX=0.5;exitY=0;exitDx=0;exitDy=0;" edge="1" parent="1" source="VLyRMC3tnF9Kx2FfK0Kg-51" target="VLyRMC3tnF9Kx2FfK0Kg-41">
          <mxGeometry width="50" height="50" relative="1" as="geometry">
            <mxPoint x="-430" y="577" as="sourcePoint" />
            <mxPoint x="-380" y="527" as="targetPoint" />
          </mxGeometry>
        </mxCell>
        <mxCell id="OvC8AXJkAFaHnAALXdvc-32" value="" style="endArrow=none;html=1;rounded=0;entryX=0.5;entryY=1;entryDx=0;entryDy=0;exitX=0.5;exitY=0;exitDx=0;exitDy=0;" edge="1" parent="1" source="VLyRMC3tnF9Kx2FfK0Kg-30" target="VLyRMC3tnF9Kx2FfK0Kg-31">
          <mxGeometry width="50" height="50" relative="1" as="geometry">
            <mxPoint x="222" y="519" as="sourcePoint" />
            <mxPoint x="272" y="469" as="targetPoint" />
          </mxGeometry>
        </mxCell>
        <mxCell id="OvC8AXJkAFaHnAALXdvc-33" value="" style="endArrow=none;html=1;rounded=0;entryX=0;entryY=1;entryDx=0;entryDy=0;exitX=1;exitY=0.5;exitDx=0;exitDy=0;" edge="1" parent="1" source="VLyRMC3tnF9Kx2FfK0Kg-30" target="VLyRMC3tnF9Kx2FfK0Kg-33">
          <mxGeometry width="50" height="50" relative="1" as="geometry">
            <mxPoint x="316" y="515" as="sourcePoint" />
            <mxPoint x="366" y="465" as="targetPoint" />
          </mxGeometry>
        </mxCell>
        <mxCell id="OvC8AXJkAFaHnAALXdvc-34" value="" style="endArrow=none;html=1;rounded=0;entryX=0;entryY=0.5;entryDx=0;entryDy=0;exitX=1;exitY=0.5;exitDx=0;exitDy=0;" edge="1" parent="1" source="VLyRMC3tnF9Kx2FfK0Kg-30" target="VLyRMC3tnF9Kx2FfK0Kg-35">
          <mxGeometry width="50" height="50" relative="1" as="geometry">
            <mxPoint x="341" y="632" as="sourcePoint" />
            <mxPoint x="391" y="582" as="targetPoint" />
          </mxGeometry>
        </mxCell>
        <mxCell id="OvC8AXJkAFaHnAALXdvc-35" value="" style="endArrow=none;html=1;rounded=0;entryX=0.5;entryY=1;entryDx=0;entryDy=0;exitX=0.5;exitY=0;exitDx=0;exitDy=0;" edge="1" parent="1" source="VLyRMC3tnF9Kx2FfK0Kg-39" target="VLyRMC3tnF9Kx2FfK0Kg-30">
          <mxGeometry width="50" height="50" relative="1" as="geometry">
            <mxPoint x="277" y="638" as="sourcePoint" />
            <mxPoint x="327" y="588" as="targetPoint" />
          </mxGeometry>
        </mxCell>
        <mxCell id="OvC8AXJkAFaHnAALXdvc-36" value="" style="endArrow=none;html=1;rounded=0;entryX=1;entryY=0.5;entryDx=0;entryDy=0;exitX=0;exitY=0.5;exitDx=0;exitDy=0;" edge="1" parent="1" source="VLyRMC3tnF9Kx2FfK0Kg-37" target="VLyRMC3tnF9Kx2FfK0Kg-30">
          <mxGeometry width="50" height="50" relative="1" as="geometry">
            <mxPoint x="311" y="632" as="sourcePoint" />
            <mxPoint x="361" y="582" as="targetPoint" />
          </mxGeometry>
        </mxCell>
        <mxCell id="OvC8AXJkAFaHnAALXdvc-37" value="" style="endArrow=none;html=1;rounded=0;entryX=0;entryY=1;entryDx=0;entryDy=0;exitX=1;exitY=0.5;exitDx=0;exitDy=0;" edge="1" parent="1" source="VLyRMC3tnF9Kx2FfK0Kg-41" target="OvC8AXJkAFaHnAALXdvc-2">
          <mxGeometry width="50" height="50" relative="1" as="geometry">
            <mxPoint x="-268" y="444" as="sourcePoint" />
            <mxPoint x="-218" y="394" as="targetPoint" />
          </mxGeometry>
        </mxCell>
        <mxCell id="OvC8AXJkAFaHnAALXdvc-38" value="" style="endArrow=none;html=1;rounded=0;entryX=0.5;entryY=1;entryDx=0;entryDy=0;exitX=1;exitY=0;exitDx=0;exitDy=0;" edge="1" parent="1" source="OvC8AXJkAFaHnAALXdvc-2" target="VLyRMC3tnF9Kx2FfK0Kg-1">
          <mxGeometry width="50" height="50" relative="1" as="geometry">
            <mxPoint x="-67" y="307" as="sourcePoint" />
            <mxPoint x="-17" y="257" as="targetPoint" />
          </mxGeometry>
        </mxCell>
        <mxCell id="OvC8AXJkAFaHnAALXdvc-39" value="" style="endArrow=none;html=1;rounded=0;entryX=0.5;entryY=1;entryDx=0;entryDy=0;exitX=0;exitY=0.5;exitDx=0;exitDy=0;" edge="1" parent="1" source="VLyRMC3tnF9Kx2FfK0Kg-30" target="OvC8AXJkAFaHnAALXdvc-3">
          <mxGeometry width="50" height="50" relative="1" as="geometry">
            <mxPoint x="141" y="496" as="sourcePoint" />
            <mxPoint x="191" y="446" as="targetPoint" />
          </mxGeometry>
        </mxCell>
        <mxCell id="OvC8AXJkAFaHnAALXdvc-40" value="" style="endArrow=none;html=1;rounded=0;exitX=0.5;exitY=0;exitDx=0;exitDy=0;entryX=0.5;entryY=1;entryDx=0;entryDy=0;" edge="1" parent="1" source="OvC8AXJkAFaHnAALXdvc-3" target="VLyRMC3tnF9Kx2FfK0Kg-1">
          <mxGeometry width="50" height="50" relative="1" as="geometry">
            <mxPoint x="21" y="322" as="sourcePoint" />
            <mxPoint x="71" y="272" as="targetPoint" />
          </mxGeometry>
        </mxCell>
        <mxCell id="OvC8AXJkAFaHnAALXdvc-41" value="1:1" style="text;html=1;align=center;verticalAlign=middle;whiteSpace=wrap;rounded=0;" vertex="1" parent="1">
          <mxGeometry x="-222" y="346" width="60" height="30" as="geometry" />
        </mxCell>
        <mxCell id="OvC8AXJkAFaHnAALXdvc-42" value="1:1" style="text;html=1;align=center;verticalAlign=middle;whiteSpace=wrap;rounded=0;" vertex="1" parent="1">
          <mxGeometry x="157" y="346" width="60" height="30" as="geometry" />
        </mxCell>
        <mxCell id="OvC8AXJkAFaHnAALXdvc-43" value="Centroid Location" style="ellipse;whiteSpace=wrap;html=1;align=center;" vertex="1" parent="1">
          <mxGeometry x="159" y="634" width="100" height="40" as="geometry" />
        </mxCell>
        <mxCell id="OvC8AXJkAFaHnAALXdvc-44" value="Attribute" style="ellipse;whiteSpace=wrap;html=1;align=center;" vertex="1" parent="1">
          <mxGeometry x="-382" y="346" width="100" height="40" as="geometry" />
        </mxCell>
        <mxCell id="OvC8AXJkAFaHnAALXdvc-45" value="" style="endArrow=none;html=1;rounded=0;entryX=0.5;entryY=1;entryDx=0;entryDy=0;exitX=0.5;exitY=0;exitDx=0;exitDy=0;" edge="1" parent="1" source="VLyRMC3tnF9Kx2FfK0Kg-41" target="OvC8AXJkAFaHnAALXdvc-44">
          <mxGeometry width="50" height="50" relative="1" as="geometry">
            <mxPoint x="-383" y="455" as="sourcePoint" />
            <mxPoint x="-333" y="405" as="targetPoint" />
          </mxGeometry>
        </mxCell>
        <mxCell id="OvC8AXJkAFaHnAALXdvc-46" value="" style="endArrow=none;html=1;rounded=0;entryX=0.5;entryY=1;entryDx=0;entryDy=0;exitX=0.5;exitY=0;exitDx=0;exitDy=0;" edge="1" parent="1" source="OvC8AXJkAFaHnAALXdvc-43" target="VLyRMC3tnF9Kx2FfK0Kg-30">
          <mxGeometry width="50" height="50" relative="1" as="geometry">
            <mxPoint x="212" y="634" as="sourcePoint" />
            <mxPoint x="262" y="584" as="targetPoint" />
          </mxGeometry>
        </mxCell>
        <mxCell id="6TTeQMK_phLxKAAykiyL-1" value="(1:1)" style="text;html=1;align=center;verticalAlign=middle;whiteSpace=wrap;rounded=0;" vertex="1" parent="1">
          <mxGeometry x="-31" y="174" width="60" height="30" as="geometry" />
        </mxCell>
        <mxCell id="6TTeQMK_phLxKAAykiyL-2" value="(1:1)" style="text;html=1;align=center;verticalAlign=middle;whiteSpace=wrap;rounded=0;" vertex="1" parent="1">
          <mxGeometry x="76" y="174" width="60" height="30" as="geometry" />
        </mxCell>
      </root>
    </mxGraphModel>
  </diagram>
</mxfile>
